<svg width="1200" height="320" viewBox="0 0 1200 320" fill="none" xmlns="http://www.w3.org/2000/svg" role="img" aria-labelledby="revMonoTitle revMonoDesc">
  <title id="revMonoTitle">Rev Fire and Security Solutions monochrome logo</title>
  <desc id="revMonoDesc">A black monochrome version of the Rev Fire and Security Solutions logo with shield and flame icon.</desc>
  <g transform="translate(52 34)">
    <g transform="translate(0 0)">
      <path d="M120 0L210 34V112C210 181 170 236 120 260C70 236 30 181 30 112V34L120 0Z" fill="#0A0A0A"/>
      <path d="M120 20L189 46V112C189 170 157 216 120 238C83 216 51 170 51 112V46L120 20Z" fill="white"/>
      <path d="M120 40L172 60V112C172 156 149 191 120 211C91 191 68 156 68 112V60L120 40Z" fill="#0A0A0A"/>
      <path d="M120 67C142 92 154 115 154 139C154 169 139 191 120 204C101 191 86 169 86 139C86 115 98 92 120 67Z" fill="white"/>
      <path d="M119 88C133 103 140 116 141 130C137 123 131 119 124 119C113 119 105 128 105 139C105 150 110 160 119 167C104 163 95 151 95 138C95 116 106 101 119 88Z" fill="#0A0A0A"/>
    </g>
    <g transform="translate(286 70)" fill="#0A0A0A">
      <text x="0" y="76" font-family="Montserrat, Poppins, Arial, sans-serif" font-size="98" font-weight="800" letter-spacing="8">REV</text>
      <rect x="2" y="97" width="134" height="6" rx="3" fill="#0A0A0A"/>
      <text x="0" y="145" font-family="Montserrat, Poppins, Arial, sans-serif" font-size="30" font-weight="600" letter-spacing="2.4">FIRE &amp; SECURITY SOLUTIONS</text>
    </g>
  </g>
</svg>
